<?xml version="1.0" encoding="utf-8"?>
<!-- Generator: Adobe Illustrator 23.0.0, SVG Export Plug-In . SVG Version: 6.00 Build 0)  -->
<svg version="1.1" id="图层_1" xmlns="http://www.w3.org/2000/svg" xmlns:xlink="http://www.w3.org/1999/xlink" x="0px" y="0px"
	 viewBox="0 0 128 128" style="enable-background:new 0 0 128 128;" xml:space="preserve">
<style type="text/css">
	.st0{stroke:currentColor;stroke-width:2;stroke-miterlimit:10;}
</style>
<path class="st0" d="M121.5,7.5H8.3c-0.9,0-1.6,0.9-1.6,2v81.2c0,1,0.6,1.9,1.4,2v28.4c0,1.1,0.7,2,1.6,2H120c0.9,0,1.6-0.9,1.6-2
	V92.7c0.8-0.1,1.4-0.9,1.4-2V9.5C123.1,8.4,122.4,7.5,121.5,7.5z M9.9,11.6h110v77.1H9.9V11.6z M107.7,101.6c1.7,0,3.1,1.9,3.1,4.3
	c0,2.3-1.4,4.3-3.1,4.3s-3.1-1.9-3.1-4.3S106,101.6,107.7,101.6z M90.6,101.6c1.7,0,3.1,1.9,3.1,4.3c0,2.3-1.4,4.3-3.1,4.3
	s-3.1-1.9-3.1-4.3S88.9,101.6,90.6,101.6z M73.5,101.6c1.7,0,3.1,1.9,3.1,4.3c0,2.3-1.4,4.3-3.1,4.3s-3.1-1.9-3.1-4.3
	S71.8,101.6,73.5,101.6z M56.4,101.6c1.7,0,3.1,1.9,3.1,4.3c0,2.3-1.4,4.3-3.1,4.3c-1.7,0-3.1-1.9-3.1-4.3
	C53.3,103.5,54.7,101.6,56.4,101.6z M39.3,101.6c1.7,0,3.1,1.9,3.1,4.3c0,2.3-1.4,4.3-3.1,4.3c-1.7,0-3.1-1.9-3.1-4.3
	S37.6,101.6,39.3,101.6z M22.2,101.6c1.7,0,3.1,1.9,3.1,4.3c0,2.3-1.4,4.3-3.1,4.3s-3.1-1.9-3.1-4.3S20.5,101.6,22.2,101.6z
	 M118.5,119H11.4V92.7h9.2v5.1c-2.7,1-4.7,4.2-4.7,8c0,4.6,2.8,8.3,6.3,8.3s6.3-3.7,6.3-8.3c0-3.9-2-7.1-4.7-8v-5.1h13.9v5.1
	c-2.7,1-4.7,4.2-4.7,8c0,4.6,2.8,8.3,6.3,8.3s6.3-3.7,6.3-8.3c0-3.9-2-7.1-4.7-8v-5.1h13.9v5.1c-2.7,1-4.7,4.2-4.7,8
	c0,4.6,2.8,8.3,6.3,8.3s6.3-3.7,6.3-8.3c0-3.9-2-7.1-4.7-8v-5.1h13.9v5.1c-2.7,1-4.7,4.2-4.7,8c0,4.6,2.8,8.3,6.3,8.3
	s6.3-3.7,6.3-8.3c0-3.9-2-7.1-4.7-8v-5.1H89v5.1c-2.7,1-4.7,4.2-4.7,8c0,4.6,2.8,8.3,6.3,8.3s6.3-3.7,6.3-8.3c0-3.9-2-7.1-4.7-8
	v-5.1H106v5.1c-2.7,1-4.7,4.2-4.7,8c0,4.6,2.8,8.3,6.3,8.3s6.3-3.7,6.3-8.3c0-3.9-2-7.1-4.7-8v-5.1h9.2L118.5,119L118.5,119z"/>
<g>
	<path class="st0" d="M65.9,81.2H18.8c-1,0-1.7-1.1-1.7-2.5V22.6c0-1.4,0.8-2.5,1.7-2.5h47.1c1,0,1.7,1.1,1.7,2.5v56.1
		C67.6,80.1,66.8,81.2,65.9,81.2z M20.5,76.2h43.6V25.1H20.5V76.2z"/>
</g>
<g>
	<g>
		<polygon class="st0" points="103,48.1 109.4,40.8 103,33.5 		"/>
		<polygon class="st0" points="99.8,29.9 93.4,22.6 86.9,29.9 		"/>
		<polygon class="st0" points="86.9,51.8 93.4,59.1 99.8,51.8 		"/>
		<polygon class="st0" points="83.7,33.5 77.3,40.8 83.7,48.1 		"/>
	</g>
	<rect x="77.3" y="63.5" class="st0" width="13.1" height="7.6"/>
	<rect x="96.2" y="63.5" class="st0" width="13.1" height="7.6"/>
</g>
</svg>
